<svg width="92" height="65" viewBox="0 0 92 65" fill="none" xmlns="http://www.w3.org/2000/svg">
<path d="M46.3257 44.94C52.9088 44.94 58.2653 39.535 58.2653 32.8945C58.2653 26.2497 52.9088 20.8446 46.3257 20.8446C39.7382 20.8446 34.3817 26.2497 34.3817 32.8945C34.3817 39.535 39.7382 44.94 46.3257 44.94ZM50.0055 22.9846C49.5731 24.1229 48.4303 26.4747 46.3257 26.4747C44.2166 26.4747 43.0739 24.1229 42.6415 22.9846C43.7886 22.5478 45.0285 22.3095 46.3257 22.3095C47.6185 22.3095 48.8583 22.5478 50.0055 22.9846ZM41.3222 23.5935C41.8384 24.9392 43.1268 27.4542 45.5977 27.8734V32.0253L42.8532 34.8756C42.5709 35.1668 42.5797 35.6301 42.8665 35.9125C43.1533 36.1905 43.6122 36.1861 43.8901 35.8949L46.3257 33.3711L48.7568 35.8949C48.898 36.0449 49.0878 36.1155 49.2775 36.1155C49.4584 36.1155 49.6437 36.0493 49.7805 35.9125C50.0673 35.6301 50.0761 35.1668 49.7981 34.8756L47.0493 32.0253V27.8734C49.5202 27.4542 50.8086 24.9392 51.3292 23.5935C54.5943 25.3893 56.8181 28.8838 56.8181 32.8945C56.8181 38.732 52.1102 43.4795 46.3257 43.4795C40.5368 43.4795 35.8333 38.732 35.8333 32.8945C35.8333 28.8838 38.0527 25.3893 41.3222 23.5935ZM63.1629 29.197C64.8263 29.197 66.1809 27.8337 66.1809 26.1526C66.1809 24.4759 64.8263 23.1081 63.1629 23.1081C61.4995 23.1081 60.1449 24.4759 60.1449 26.1526C60.1449 27.8337 61.4995 29.197 63.1629 29.197ZM63.1629 24.573C64.0277 24.573 64.7337 25.279 64.7337 26.1526C64.7337 27.0262 64.0277 27.7366 63.1629 27.7366C62.2981 27.7366 61.5965 27.0262 61.5965 26.1526C61.5965 25.279 62.2981 24.573 63.1629 24.573ZM29.4841 29.197C31.1475 29.197 32.5021 27.8337 32.5021 26.1526C32.5021 24.4759 31.1475 23.1081 29.4841 23.1081C27.8207 23.1081 26.4661 24.4759 26.4661 26.1526C26.4661 27.8337 27.8207 29.197 29.4841 29.197ZM29.4841 24.573C30.3489 24.573 31.0548 25.279 31.0548 26.1526C31.0548 27.0262 30.3489 27.7366 29.4841 27.7366C28.6193 27.7366 27.9177 27.0262 27.9177 26.1526C27.9177 25.279 28.6193 24.573 29.4841 24.573ZM0.949977 52.1938C1.08234 52.3041 1.2456 52.357 1.40885 52.357C1.55887 52.357 1.70447 52.3129 1.83243 52.2202C2.38396 51.8143 2.93991 51.4525 3.50468 51.126C3.7297 52.0614 4.13563 53.5174 4.74011 54.7838C4.31653 55.5162 3.94149 56.2795 3.62381 57.0826C3.50468 57.3826 3.59734 57.7267 3.84442 57.9253C3.97679 58.0312 4.13563 58.0841 4.29888 58.0841C4.44008 58.0841 4.58568 58.04 4.70923 57.9562C5.2387 57.5856 5.75934 57.2414 6.26675 56.9281C7.2198 57.8106 8.75086 58.9269 10.4805 59.9946C10.3525 60.4006 10.2334 60.8153 10.1187 61.2345C10.0437 61.5345 10.1584 61.8478 10.4055 62.0243C10.5334 62.1125 10.6746 62.1567 10.8202 62.1567C10.9658 62.1567 11.1158 62.1081 11.2394 62.0199C11.6585 61.7198 12.0821 61.4375 12.5013 61.1683C14.7957 62.417 18.7535 64.2745 21.9479 64.2745C25.0674 64.2745 27.3574 63.5553 29.3738 62.92C31.0063 62.4037 32.4138 61.9581 33.9978 61.9581C35.6965 61.9581 37.5365 62.492 39.4823 63.0568C41.6752 63.6965 43.9431 64.3584 46.3257 64.3584C48.7039 64.3584 50.9718 63.6965 53.1691 63.0568C55.1149 62.492 56.9504 61.9581 58.6491 61.9581C60.2331 61.9581 61.6451 62.4037 63.2776 62.92C65.294 63.5553 67.5796 64.2745 70.699 64.2745C73.8935 64.2745 77.8513 62.417 80.1501 61.1683C80.5693 61.4375 80.9884 61.7198 81.4076 62.0199C81.5356 62.1081 81.6812 62.1567 81.8268 62.1567C81.9724 62.1567 82.118 62.1125 82.2415 62.0243C82.493 61.8478 82.6077 61.5345 82.5283 61.2345C82.418 60.8153 82.2989 60.4006 82.1709 59.9946C83.8961 58.9269 85.4272 57.8106 86.3802 56.9281C86.892 57.2414 87.4083 57.5856 87.9378 57.9562C88.0657 58.04 88.2069 58.0841 88.3525 58.0841C88.5113 58.0841 88.6702 58.0312 88.8026 57.9253C89.0541 57.7223 89.1423 57.3826 89.0232 57.0826C88.7055 56.2795 88.3349 55.5162 87.9113 54.7838C88.5113 53.5174 88.9173 52.0614 89.1423 51.126C89.7071 51.4525 90.263 51.8143 90.8145 52.2202C90.9425 52.3129 91.0925 52.357 91.2425 52.357C91.4014 52.357 91.5646 52.3041 91.697 52.1938C91.9529 51.9864 92.0367 51.629 91.9 51.3246C91.269 49.9259 90.5498 48.686 89.7424 47.6094C89.7953 46.2416 89.7247 40.3998 85.0477 38.1231C81.1385 36.2214 76.8409 37.5318 74.9569 38.2951C74.1141 28.8617 71.0917 19.5871 66.5868 12.704C61.1994 4.47072 54.1928 0.120232 46.3257 0.120232C38.4542 0.120232 31.4475 4.47072 26.0602 12.704C21.5597 19.5871 18.5328 28.8617 17.6945 38.2951C15.8061 37.5318 11.5085 36.2214 7.59926 38.1231C2.92667 40.3998 2.85608 46.2416 2.90461 47.6094C2.09717 48.686 1.37797 49.9259 0.747013 51.329C0.610233 51.629 0.694065 51.9864 0.949977 52.1938ZM9.14355 44.5517C9.32004 44.9621 9.5936 45.3239 9.94658 45.6195L11.7424 47.1064C11.8659 47.2123 11.9674 47.3359 12.0468 47.4682C8.96265 47.3976 6.04173 48.0948 3.32377 49.5552C4.86807 47.0755 6.79181 45.4298 9.14355 44.5517ZM19.2565 40.1615C21.9832 40.4042 24.1761 41.5073 25.2836 43.1839C27.6442 46.7579 25.866 52.3835 21.0611 56.5575C20.7875 56.7958 20.4345 56.8752 20.0948 56.7869C19.7506 56.6943 19.4859 56.4516 19.3668 56.1163L18.9255 54.8897C18.6829 54.2058 18.1534 53.6586 17.4827 53.3939L15.4751 52.6041C14.3147 52.1452 13.5735 50.998 13.622 49.745L13.6838 48.2713C13.7191 47.3932 13.3352 46.5372 12.6645 45.9769L10.8687 44.49C10.5114 44.1943 10.326 43.7619 10.3525 43.2986C10.3834 42.8265 10.6261 42.4162 11.0232 42.1603C13.419 40.6336 16.4238 39.9056 19.2565 40.1615ZM6.11233 55.3132C7.53307 52.9483 9.56272 50.998 12.1836 49.489L12.1748 49.6832C12.1307 50.7774 12.4925 51.8187 13.1455 52.6306C10.8776 52.9836 8.57437 53.8572 6.11233 55.3132ZM4.83277 50.4244C6.55796 49.6126 8.35375 49.1317 10.2422 48.9816C8.41994 50.2038 6.90212 51.6555 5.68875 53.3233C5.26517 52.2202 4.97837 51.0775 4.83277 50.4244ZM7.59043 56.1516C9.60684 55.0485 11.4997 54.369 13.3573 54.0778C12.413 55.4059 11.6144 56.9105 10.9702 58.5871C9.63331 57.7444 8.42435 56.8708 7.59043 56.1516ZM15.206 54.0646L16.9533 54.7529C17.2401 54.8676 17.4607 55.097 17.5666 55.3882L18.0034 56.6104C18.0475 56.734 18.1004 56.8487 18.1622 56.959C16.1237 57.5414 14.125 58.4415 12.1086 59.6902C12.8763 57.5061 13.9176 55.6221 15.206 54.0646ZM70.699 62.8141C67.8002 62.8141 65.722 62.1567 63.71 61.5213C62.0333 60.9962 60.4538 60.4976 58.6491 60.4976C56.7475 60.4976 54.8149 61.058 52.7676 61.6537C50.6674 62.267 48.4965 62.8979 46.3257 62.8979C44.1504 62.8979 41.9796 62.267 39.8838 61.6537C37.8365 61.058 35.8995 60.4976 33.9978 60.4976C32.1932 60.4976 30.6136 60.9962 28.9414 61.5213C26.9294 62.1567 24.8468 62.8141 21.9479 62.8141C19.9271 62.8141 17.1253 61.9228 13.9617 60.2947C15.8017 59.271 17.6327 58.5563 19.4947 58.1238C19.5697 58.1503 19.6491 58.1768 19.7242 58.1989C19.9359 58.2562 20.1477 58.2827 20.3639 58.2827C20.9596 58.2827 21.542 58.0665 22.0053 57.665C25.6278 54.5146 27.6662 50.5612 27.7545 47.0314C28.6016 46.7667 30.4857 46.2813 32.0432 46.6034C32.9962 46.7976 33.786 47.3447 34.62 47.9227C35.6304 48.6242 36.6761 49.3523 38.1101 49.5288C38.3616 49.5596 38.6042 49.5773 38.8513 49.5773C39.8 49.5773 40.7177 49.3611 41.7458 49.1228C43.0165 48.8316 44.4549 48.4963 46.3257 48.4963C48.1965 48.4963 49.6349 48.8316 50.9012 49.1228C52.194 49.4229 53.3147 49.6832 54.5413 49.5288C55.9709 49.3523 57.0166 48.6242 58.0314 47.9227C58.8609 47.3447 59.6507 46.7976 60.6038 46.6034C62.1613 46.2813 64.0453 46.7667 64.8969 47.0314C64.9852 50.5612 67.0192 54.5146 70.6417 57.665C71.105 58.0665 71.6918 58.2827 72.2874 58.2827C72.4992 58.2827 72.711 58.2562 72.9228 58.1989C73.0022 58.1768 73.0772 58.1503 73.1523 58.1238C75.0142 58.5563 76.8453 59.271 78.6852 60.2947C75.5261 61.9228 72.7198 62.8141 70.699 62.8141ZM74.5156 40.1086C77.0042 40.1086 79.5412 40.8366 81.6282 42.1603C82.0209 42.4162 82.268 42.8265 82.2945 43.2986C82.3253 43.7619 82.1356 44.1943 81.7826 44.49L79.9869 45.9769C79.3118 46.5372 78.9323 47.3932 78.9676 48.2713L79.025 49.745C79.0779 50.998 78.3323 52.1452 77.1762 52.5997L75.1687 53.3939C74.4936 53.6586 73.9685 54.2058 73.7214 54.8897L73.2802 56.1163C73.1611 56.4516 72.8963 56.6943 72.5566 56.7869C72.2124 56.8752 71.8595 56.7958 71.5903 56.5575C66.7854 52.3835 65.0072 46.7579 67.3634 43.1839C68.4708 41.5073 70.6682 40.4042 73.3905 40.1615C73.7656 40.1262 74.1406 40.1086 74.5156 40.1086ZM83.5078 44.5517C85.8596 45.4298 87.7789 47.0755 89.3276 49.5552C86.6097 48.0948 83.6843 47.3976 80.6002 47.4682C80.6796 47.3315 80.7811 47.2123 80.9046 47.1064L82.7004 45.6195C83.0578 45.3239 83.3269 44.9621 83.5078 44.5517ZM86.5391 55.3132C84.0726 53.8572 81.7738 52.9836 79.5015 52.6306C80.1545 51.8187 80.5163 50.7774 80.4722 49.6832L80.4678 49.489C83.0843 50.998 85.1183 52.9483 86.5391 55.3132ZM74.4892 56.959C74.5465 56.8487 74.6039 56.734 74.6436 56.6104L75.0848 55.3882C75.1863 55.097 75.4113 54.8676 75.6937 54.7529L77.441 54.0646C78.7294 55.6221 79.7707 57.5061 80.5384 59.6902C78.5264 58.4415 76.5232 57.5414 74.4892 56.959ZM81.6768 58.5871C81.0326 56.9105 80.2383 55.4059 79.2897 54.0778C81.1473 54.369 83.0401 55.0485 85.061 56.1516C84.227 56.8708 83.0181 57.7444 81.6768 58.5871ZM86.9582 53.3233C85.7449 51.6555 84.227 50.2038 82.4048 48.9772C84.2932 49.1317 86.089 49.6126 87.8186 50.4244C87.673 51.0775 87.3862 52.2158 86.9582 53.3233ZM84.4168 39.4423C87.1965 40.7969 87.9995 43.859 88.2201 45.871C86.9009 44.5914 85.4007 43.6604 83.7284 43.0824C83.6358 42.1912 83.1593 41.4102 82.4004 40.9248C80.9531 40.0071 79.3118 39.3497 77.6131 38.9834C79.5324 38.5246 82.0959 38.3084 84.4168 39.4423ZM46.3257 1.58069C62.051 1.58069 72.0007 20.5578 73.5361 38.6878C73.4435 38.6922 73.3508 38.6967 73.2626 38.7055C70.099 38.9879 67.509 40.3292 66.1588 42.3765C65.5279 43.3251 65.144 44.3973 64.9807 45.5312C63.8953 45.2224 62.0025 44.8209 60.3126 45.1694C59.0727 45.4254 58.1241 46.0828 57.2107 46.7181C56.3018 47.3491 55.4414 47.9448 54.3604 48.0771C53.3897 48.2007 52.4323 47.9801 51.2277 47.6977C49.882 47.3888 48.3597 47.0358 46.3257 47.0358C44.2916 47.0358 42.765 47.3888 41.4237 47.6977C40.2147 47.9801 39.2617 48.2007 38.2865 48.0771C37.2055 47.9448 36.3496 47.3491 35.4406 46.7181C34.5229 46.0828 33.5787 45.4254 32.3344 45.1694C30.6489 44.8209 28.7516 45.2224 27.6662 45.5312C27.5074 44.3973 27.1191 43.3251 26.4926 42.3765C25.138 40.3292 22.548 38.9879 19.3844 38.7055C19.2962 38.6967 19.2035 38.6922 19.1153 38.6878C20.6507 20.5578 30.596 1.58069 46.3257 1.58069ZM8.23021 39.4423C10.5511 38.3084 13.119 38.5246 15.0339 38.9834C13.3352 39.3497 11.6938 40.0071 10.2466 40.9248C9.48771 41.4102 9.01118 42.1912 8.92294 43.0824C7.24628 43.6604 5.74611 44.5914 4.42684 45.871C4.64745 43.859 5.45049 40.7969 8.23021 39.4423ZM35.6083 55.0441C35.8995 55.3221 35.9083 55.7854 35.6304 56.0766C35.4892 56.2266 35.2994 56.3016 35.1097 56.3016C34.9288 56.3016 34.7435 56.231 34.6067 56.0942L32.1535 53.716C31.8667 53.4336 31.8579 52.9703 32.1359 52.6791C32.4138 52.3879 32.8727 52.3835 33.1595 52.6615L35.6083 55.0441ZM28.3413 56.8619L26.8588 60.2726C26.7397 60.5462 26.4749 60.7094 26.1969 60.7094C26.0999 60.7094 26.0028 60.6918 25.9057 60.6477C25.5395 60.4888 25.3719 60.0564 25.5351 59.6858L27.0132 56.2751C27.1765 55.9045 27.6045 55.7368 27.9707 55.8957C28.3369 56.0589 28.5046 56.4913 28.3413 56.8619ZM43.0077 58.8563C43.2459 59.1784 43.1753 59.6373 42.8532 59.8755C42.7253 59.9726 42.5753 60.0211 42.4253 60.0211C42.2046 60.0211 41.984 59.9152 41.8428 59.7211L40.2456 57.537C40.0073 57.2105 40.0779 56.756 40.4 56.5134C40.7221 56.2751 41.1766 56.3457 41.4104 56.6678L43.0077 58.8563ZM44.7461 52.6924C45.0152 52.9924 44.9932 53.4557 44.702 53.7292C44.5608 53.8572 44.3843 53.919 44.2122 53.919C44.0137 53.919 43.8195 53.8395 43.6783 53.6807L42.5003 52.3835C42.2267 52.0835 42.2488 51.6202 42.5444 51.351C42.84 51.0775 43.2989 51.0951 43.568 51.3951L44.7461 52.6924ZM50.5879 55.8648C50.8438 56.178 50.7997 56.6369 50.4909 56.8972L48.17 58.8342C48.0332 58.9489 47.87 59.0019 47.7067 59.0019C47.4994 59.0019 47.292 58.9136 47.1508 58.7372C46.8949 58.4283 46.939 57.965 47.2479 57.7091L49.5687 55.7677C49.8776 55.5118 50.332 55.5559 50.5879 55.8648ZM60.2243 57.0693C60.4891 57.3738 60.4582 57.8326 60.1581 58.1018C60.0214 58.2209 59.8493 58.2827 59.6816 58.2827C59.4786 58.2827 59.2801 58.1989 59.1345 58.0356L57.577 56.2442C57.3122 55.9398 57.3431 55.4765 57.6431 55.2118C57.9432 54.947 58.4021 54.9735 58.6668 55.2779L60.2243 57.0693ZM63.6924 51.4525L63.0085 54.4705C62.9334 54.8102 62.6334 55.0397 62.3025 55.0397C62.2495 55.0397 62.1966 55.0353 62.1392 55.022C61.751 54.9294 61.5083 54.5367 61.5965 54.144L62.2804 51.126C62.3687 50.7333 62.757 50.4862 63.1452 50.5745C63.5379 50.6671 63.7806 51.0598 63.6924 51.4525ZM69.9092 60.7094C69.7725 60.93 69.5386 61.0536 69.2959 61.0536C69.1636 61.0536 69.0312 61.0183 68.9121 60.9433L66.7104 59.5667C66.3706 59.3505 66.2647 58.9004 66.4765 58.5607C66.6839 58.2165 67.1295 58.1106 67.4737 58.3224L69.6754 59.7034C70.0151 59.9152 70.121 60.3653 69.9092 60.7094ZM54.9693 53.588C55.212 53.9057 55.1502 54.3646 54.8325 54.6117C54.7046 54.7132 54.5457 54.7617 54.3957 54.7617C54.1751 54.7617 53.9633 54.6646 53.8177 54.4793L52.5867 52.86C52.344 52.5423 52.4058 52.0835 52.7191 51.8364C53.0367 51.5893 53.4912 51.6511 53.7383 51.9732L54.9693 53.588Z" fill="#3A322B"/>
</svg>
